PathFileType	4	(X/Y/Z)	/Users/itak/Documents/Research/Walk-IL/dataset/trc/00343_00011.trc
DataRate	CameraRate	NumFrames	NumMarkers	Units	OrigDataRate	OrigDataStartFrame	OrigNumFrames
100.000000	100.000000	4	54	mm	100.000000	193	772
Frame#	Time	RPSI			LPSI			L3			STRN			T10			C7			CLAV			RBAK			LBAK			LSHO			LUPA			LAEL			LAOL			LWTS			LWPS			LFRA			LIFD			LHPS			LHTS			RSHO			RUPA			RAEL			RAOL			RWTS			RWPS			RFRA			RIFD			RHTS			RHPS			RBHD			LFHD			RFHD			LBHD			LHIP			RHIP			RASI			LASI			LKNE			LTHI			LANK			LTIP			LTOE			LMT1			LMT5			LHEE			RKNE			RTHI			RTIP			RTOE			RMT1			RMT5			RHEE			RANK			*53			
		X1	Y1	Z1	X2	Y2	Z2	X3	Y3	Z3	X4	Y4	Z4	X5	Y5	Z5	X6	Y6	Z6	X7	Y7	Z7	X8	Y8	Z8	X9	Y9	Z9	X10	Y10	Z10	X11	Y11	Z11	X12	Y12	Z12	X13	Y13	Z13	X14	Y14	Z14	X15	Y15	Z15	X16	Y16	Z16	X17	Y17	Z17	X18	Y18	Z18	X19	Y19	Z19	X20	Y20	Z20	X21	Y21	Z21	X22	Y22	Z22	X23	Y23	Z23	X24	Y24	Z24	X25	Y25	Z25	X26	Y26	Z26	X27	Y27	Z27	X28	Y28	Z28	X29	Y29	Z29	X30	Y30	Z30	X31	Y31	Z31	X32	Y32	Z32	X33	Y33	Z33	X34	Y34	Z34	X35	Y35	Z35	X36	Y36	Z36	X37	Y37	Z37	X38	Y38	Z38	X39	Y39	Z39	X40	Y40	Z40	X41	Y41	Z41	X42	Y42	Z42	X43	Y43	Z43	X44	Y44	Z44	X45	Y45	Z45	X46	Y46	Z46	X47	Y47	Z47	X48	Y48	Z48	X49	Y49	Z49	X50	Y50	Z50	X51	Y51	Z51	X52	Y52	Z52	X53	Y53	Z53	X54	Y54	Z54	

194	1.93	243.2334442138672	955.682373046875	995.0379638671875	196.1736755371094	951.2626342773438	874.99560546875	220.4516754150391	1007.047302246094	945.1219482421875	416.7450256347656	1191.530151367188	822.1234741210938	204.7591247558594	1126.104614257812	943.5784912109375	229.5545959472656	1372.82861328125	895.03173828125	370.8691711425781	1316.321411132812	829.66357421875	220.7744445800781	1239.34375	987.8919677734375	174.0330810546875	1330.0458984375	813.4827880859375	221.7019653320312	1342.116455078125	722.6189575195312	164.4798431396484	1222.2490234375	688.1322021484375	148.0021514892578	1019.2099609375	697.4056396484375	132.8509216308594	1019.176879882812	780.6917114257812	204.8451080322266	756.326416015625	719.9859619140625	143.8309936523438	759.265869140625	691.134765625	139.7368469238281	914.4037475585938	696.792724609375	178.4081878662109	603.3823852539062	751.5657348632812	129.2566833496094	692.271484375	711.115966796875	192.2529602050781	680.63134765625	711.1019287109375	355.1348876953125	1369.26611328125	1012.804321289062	378.8692932128906	1309.177978515625	1077.562133789062	434.6747436523438	1048.8779296875	1121.7783203125	358.0682678222656	1028.470703125	1069.607788085938	538.5547485351562	835.354248046875	1021.676879882812	548.4647216796875	820.1951293945312	1096.123413085938	471.1449890136719	985.222900390625	1117.720458984375	577.2454223632812	666.2681274414062	1017.091430664062	585.2680053710938	739.797607421875	1015.100769042969	572.276123046875	738.6690063476562	1083.692260742188	324.4455871582031	1582.264282226562	936.6819458007812	388.5475463867188	1580.605102539062	738.159912109375	441.5021362304688	1586.490844726562	824.0079345703125	226.4833984375	1570.178344726562	830.6055908203125	244.1006622314453	898.3800048828125	747.270263671875	351.618896484375	901.5049438476562	1074.431762695312	439.4868469238281	923.8491821289062	1000.766906738281	377.7034301757812	920.25	769.65185546875	418.1383056640625	465.9198913574219	697.4905395507812	370.8003234863281	596.8247680664062	695.816650390625	408.8198852539062	45.94327926635742	770.8043823242188	412.6388244628906	237.803466796875	719.49853515625	591.7252197265625	43.65143203735352	658.543701171875	575.123779296875	25.18537139892578	735.9957275390625	484.3972473144531	45.23877716064453	670.78955078125	436.0526428222656	39.21823501586914	840.4630737304688	321.883544921875	464.9703674316406	1133.953979492188	399.2329406738281	700.274169921875	1090.481201171875	265.0667114257812	360.8505249023438	1167.554809570312	143.6446533203125	38.41209411621094	1191.4111328125	99.3985595703125	53.59742736816406	1154.318359375	89.31674194335938	74.91812133789062	1270.552490234375	-3.182280540466309	197.6345977783203	1210.172241210938	37.23608779907227	161.7495727539062	1253.178100585938	nan	nan	nan	
195	1.94	250.6519927978516	956.4213256835938	988.2410888671875	202.4633483886719	952.2000732421875	868.5181884765625	227.5586395263672	1007.849975585938	937.8701171875	422.1405639648438	1193.417846679688	813.6577758789062	211.46240234375	1126.938110351562	935.6943359375	234.5954742431641	1373.94091796875	887.6846313476562	375.9527282714844	1318.027709960938	821.6892700195312	226.4640808105469	1240.232299804688	980.284912109375	179.0876159667969	1331.13671875	806.0857543945312	226.55615234375	1343.724609375	715.26220703125	170.3792419433594	1223.656005859375	679.78662109375	156.0060119628906	1020.226928710938	687.3601684570312	139.7916717529297	1019.651428222656	770.5281982421875	217.714599609375	758.6554565429688	708.533203125	156.7612915039062	760.25146484375	679.4130249023438	149.5495758056641	915.2405395507812	686.144775390625	194.0915222167969	604.6776123046875	739.2005004882812	143.4412384033203	692.759765625	698.8417358398438	206.6712188720703	682.4956665039062	699.228759765625	360.4975891113281	1370.510375976562	1005.068054199219	384.3238830566406	1310.389282226562	1069.73876953125	439.6950988769531	1049.997802734375	1113.802734375	363.422607421875	1029.791381835938	1060.927734375	544.092041015625	836.8767700195312	1013.320495605469	553.853759765625	821.4714965820312	1087.774047851562	476.1985778808594	986.356689453125	1109.685913085938	582.5684814453125	667.8048095703125	1008.053894042969	590.6704711914062	741.274169921875	1006.425537109375	577.5703735351562	739.85302734375	1075.005615234375	329.9445495605469	1583.777465820312	929.0567626953125	392.9535217285156	1581.86767578125	730.190185546875	446.3983154296875	1587.79052734375	815.6747436523438	231.3976440429688	1571.711669921875	823.5006713867188	249.1429290771484	899.3998413085938	740.27490234375	360.3046875	902.60498046875	1066.287719726562	446.9259643554688	925.5758666992188	991.615234375	382.9792785644531	921.6508178710938	761.0321655273438	420.8773498535156	465.3023986816406	693.0709228515625	374.4964904785156	596.5958251953125	690.3279418945312	408.7464294433594	45.93239212036133	770.396484375	413.8744812011719	237.47802734375	717.1901245117188	591.67724609375	43.01626205444336	658.1710815429688	575.1475219726562	25.33517265319824	735.9425048828125	484.4503784179688	44.47364807128906	670.398681640625	435.9040832519531	39.55049133300781	840.1029052734375	341.4758911132812	465.23876953125	1125.154296875	412.0943298339844	701.341064453125	1080.951904296875	283.3811340332031	362.2588500976562	1159.900268554688	147.9806823730469	36.5378303527832	1190.153930664062	104.9815063476562	56.29409027099609	1152.764770507812	96.99464416503906	81.82164001464844	1267.858520507812	12.35529136657715	208.6962127685547	1205.718383789062	51.10567855834961	171.8793182373047	1249.5947265625	nan	nan	nan	
196	1.95	257.8306884765625	956.9058227539062	981.6083984375	208.5135345458984	952.9884643554688	862.2023315429688	234.4625396728516	1008.625854492188	930.720458984375	427.3988342285156	1195.1728515625	805.4811401367188	217.9687347412109	1127.738891601562	927.9102172851562	239.5458831787109	1375.010986328125	880.5224609375	380.9498291015625	1319.625732421875	813.9501342773438	232.0228118896484	1241.092529296875	972.8320922851562	184.0354766845703	1332.157836914062	798.8828125	231.2867431640625	1345.196899414062	708.0891723632812	176.1902618408203	1224.904174804688	671.61328125	163.9668121337891	1021.137329101562	677.2869262695312	146.6225738525391	1019.889770507812	760.29345703125	231.0930023193359	761.4537963867188	696.41064453125	169.8975524902344	761.2665405273438	667.4076538085938	159.3716735839844	915.9931030273438	675.3425903320312	210.2566070556641	606.1683349609375	726.1423950195312	157.9153442382812	693.2898559570312	686.1484985351562	221.3772277832031	684.4949951171875	686.9649658203125	365.7863464355469	1371.671997070312	997.5601806640625	389.6600341796875	1311.463623046875	1062.133178710938	444.7286071777344	1050.979614257812	1105.946533203125	368.7489624023438	1030.928466796875	1052.4462890625	549.6808471679688	838.3587646484375	1005.080261230469	559.2263793945312	822.63720703125	1079.522705078125	481.2708435058594	987.35791015625	1101.755981445312	588.0681762695312	669.3384399414062	999.135009765625	596.2047119140625	742.7243041992188	997.8908081054688	582.9129028320312	740.9631958007812	1066.417236328125	335.4022827148438	1585.273803710938	921.503173828125	397.2430114746094	1583.039306640625	722.26904296875	451.2024230957031	1589.028564453125	807.3671875	236.224853515625	1573.19140625	816.5203247070312	253.9533538818359	900.2802734375	733.4262084960938	368.7339172363281	903.4539794921875	1058.268676757812	454.1976318359375	927.1734619140625	982.609619140625	387.9961547851562	922.8726806640625	752.59814453125	423.2091369628906	464.458984375	688.8834838867188	377.6215515136719	596.1503295898438	685.14697265625	408.6424255371094	45.87289810180664	770.0433349609375	414.8001708984375	237.1181793212891	715.0819702148438	591.5338134765625	42.51105499267578	657.7772827148438	575.1318359375	25.5140323638916	735.8616333007812	484.4357604980469	43.74319076538086	670.0307006835938	435.7838745117188	39.84848785400391	839.7933959960938	361.585693359375	465.3955383300781	1115.785400390625	424.9774780273438	702.3190307617188	1071.27880859375	302.3171997070312	363.4841918945312	1151.384399414062	153.2949371337891	34.93220138549805	1188.291015625	111.4561996459961	59.61446380615234	1150.52685546875	106.1668243408203	89.39209747314453	1264.34912109375	28.84423446655273	219.7444458007812	1200.490356445312	66.02699279785156	182.1064147949219	1245.183959960938	nan	nan	nan	
197	1.96	264.7951049804688	957.1644897460938	975.1522827148438	214.3348846435547	953.673583984375	856.0747680664062	241.1480560302734	1009.388732910156	923.720458984375	432.5274353027344	1196.794189453125	797.6002807617188	224.2758941650391	1128.5234375	920.2733764648438	244.4075775146484	1376.048095703125	873.55517578125	385.8623046875	1321.117065429688	806.44921875	237.4739074707031	1241.939086914062	965.5516967773438	188.8715057373047	1333.128540039062	791.8911743164062	235.8852996826172	1346.53515625	701.1129150390625	181.8961334228516	1225.994262695312	663.6463012695312	171.8865814208984	1021.953674316406	667.2183227539062	153.3464813232422	1019.894958496094	750.0128173828125	244.8036041259766	764.6235961914062	683.8215942382812	183.2032470703125	762.3453369140625	655.1512451171875	169.1939544677734	916.6813354492188	664.415771484375	226.8806304931641	607.9119873046875	712.4024047851562	172.6536560058594	693.9116821289062	673.05810546875	236.3420257568359	686.6752319335938	674.3408203125	371.02294921875	1372.762939453125	990.274169921875	394.9200134277344	1312.422729492188	1054.732421875	449.7803649902344	1051.836791992188	1098.207885742188	374.0592651367188	1031.904418945312	1044.168579101562	555.2938842773438	839.7874755859375	996.9677734375	564.5661010742188	823.6962890625	1071.375854492188	486.364013671875	988.2407836914062	1093.928466796875	593.759521484375	670.8709106445312	990.3572998046875	601.861083984375	744.1519775390625	989.509765625	588.3026123046875	742.0216064453125	1057.942016601562	340.826171875	1586.751098632812	914.0274658203125	401.4096984863281	1584.123657226562	714.400146484375	455.9127197265625	1590.208374023438	799.095947265625	240.968017578125	1574.6123046875	809.6768188476562	258.5231323242188	901.0525512695312	726.7540283203125	376.9337768554688	904.0814819335938	1050.3720703125	461.3382263183594	928.662841796875	973.7262573242188	392.7377624511719	923.943115234375	744.3721923828125	425.1582336425781	463.4660034179688	684.9588623046875	380.2164916992188	595.5709838867188	680.273681640625	408.5267333984375	45.77999496459961	769.7521362304688	415.4796142578125	236.7410736083984	713.1778564453125	591.3428344726562	42.12212753295898	657.4064331054688	575.0941162109375	25.68277931213379	735.7756958007812	484.3855895996094	43.08700561523438	669.7049560546875	435.697265625	40.11165237426758	839.54150390625	382.0520629882812	465.5032958984375	1105.834350585938	437.8203735351562	703.2604370117188	1061.467529296875	321.73486328125	364.5516052246094	1141.994018554688	159.8490905761719	33.96081161499023	1185.648681640625	119.0794448852539	63.45703506469727	1147.444213867188	117.0070953369141	97.31870269775391	1259.9453125	46.11803817749023	230.4456787109375	1194.44580078125	81.90665435791016	192.0971374511719	1239.829711914062	nan	nan	nan	
